<svg width="62" height="57" viewBox="0 0 62 57" fill="none" xmlns="http://www.w3.org/2000/svg">
<path d="M11.5853 27.1272L21.6503 9.30577C22.4861 7.82578 24.1634 7.03418 25.8407 7.30885C30.3778 8.05181 39.5827 9.44805 46.9738 9.85736M11.5853 27.1272C19.5978 29.7147 24.7037 31.2384 35.3944 31.3199M11.5853 27.1272L8.10654 38.8352C7.45692 41.0216 8.75692 43.3001 10.9803 43.8084C18.2019 45.4593 33.4556 48.7007 43.5757 49.1158M35.3944 31.3199C37.3498 30.691 48.1658 10.9243 46.9738 9.85736M35.3944 31.3199C35.3944 31.3199 40.3807 42.1661 43.5757 49.1158M46.9738 9.85736C49.5224 12.9825 53.0567 17.3163 55.0041 19.7043C55.8921 20.7931 56.1458 22.259 55.6499 23.5737C53.6034 28.9991 47.9588 43.3849 43.5757 49.1158" stroke="black"/>
<path d="M20.8383 21.4242L20.9817 20.8038L22.0059 20.9515L23.45 16.6719L22.4266 16.3266L21.7973 17.0469L21.2306 16.8556L21.9478 15.2888L26.3966 16.7901L26.0431 18.4796L25.4764 18.2884L25.4038 17.3312L24.3804 16.9859L22.9362 21.2655L23.8489 21.7713L23.5955 22.3547L20.8383 21.4242Z" fill="black"/>
<path d="M26.0391 23.217C25.791 23.1332 25.5901 23.012 25.4364 22.8534C25.2826 22.6948 25.1836 22.5137 25.1392 22.3103C25.0948 22.1069 25.1097 21.8953 25.1839 21.6754C25.2714 21.416 25.4085 21.2236 25.5953 21.0982C25.7896 20.9691 26.011 20.8899 26.2595 20.8608C26.5137 20.8335 26.7686 20.841 27.0244 20.8833C27.2877 20.922 27.5303 20.9755 27.7521 21.0441L27.9633 20.4182C27.9975 20.3167 27.9753 20.215 27.8967 20.1131C27.8199 20.0056 27.6801 19.9176 27.4771 19.8491C27.4207 19.83 27.3577 19.8119 27.2881 19.7947C27.2186 19.7775 27.1574 19.7726 27.1047 19.7799L26.7161 20.2894L25.9056 19.6202C26.1079 19.3745 26.3804 19.2089 26.7233 19.1236C27.0661 19.0384 27.4179 19.0566 27.7788 19.1784C28.0381 19.2659 28.2597 19.3909 28.4435 19.5534C28.6293 19.7103 28.7518 19.9055 28.8112 20.1391C28.8762 20.3746 28.8554 20.6502 28.7488 20.9659L28.0781 22.9535C28.0534 23.0268 28.0494 23.0851 28.0662 23.1285C28.0849 23.1662 28.1196 23.1936 28.1703 23.2107C28.1985 23.2202 28.2276 23.2269 28.2577 23.2308C28.2878 23.2347 28.3085 23.2385 28.3198 23.2423L28.3124 23.7109C28.254 23.7351 28.1608 23.7602 28.0327 23.7861C27.9046 23.8119 27.7673 23.8001 27.6207 23.7507C27.4572 23.6955 27.337 23.6141 27.2603 23.5066C27.1892 23.4009 27.1482 23.2803 27.1374 23.1448C26.9791 23.2233 26.8057 23.2715 26.6175 23.2897C26.4292 23.3078 26.2364 23.2835 26.0391 23.217ZM26.4395 22.5607C26.6031 22.6159 26.7639 22.6231 26.9222 22.5823C27.0804 22.5415 27.2058 22.477 27.2983 22.3889L27.538 21.6784C27.4177 21.6441 27.2842 21.6116 27.1376 21.581C26.9909 21.5503 26.8451 21.5357 26.7002 21.537C26.5609 21.5403 26.4347 21.5699 26.3216 21.626C26.2141 21.6839 26.1376 21.7805 26.0919 21.9159C26.0481 22.0455 26.0524 22.1726 26.1046 22.297C26.1644 22.4176 26.276 22.5055 26.4395 22.5607Z" fill="black"/>
<path d="M30.3188 24.6611C29.9861 24.5489 29.7271 24.3673 29.5417 24.1163C29.3582 23.8597 29.2502 23.5563 29.2176 23.2062C29.1851 22.856 29.2344 22.4864 29.3657 22.0974C29.4951 21.7139 29.6562 21.404 29.849 21.1676C30.0494 20.9275 30.2627 20.7514 30.4889 20.6393C30.7152 20.5273 30.9487 20.4679 31.1896 20.4613C31.4305 20.4546 31.6581 20.4875 31.8724 20.5598C32.0077 20.6054 32.1251 20.6576 32.2246 20.7163C32.3298 20.7769 32.4208 20.8422 32.4977 20.9121L33.0115 19.3897L32.5519 19.244L32.6471 18.6827L33.8375 18.896L34.0167 19.2862L32.2986 24.3777C32.2739 24.451 32.2699 24.5093 32.2867 24.5527C32.311 24.5923 32.3485 24.6207 32.3992 24.6378C32.4387 24.6511 32.4773 24.6578 32.5149 24.658C32.5582 24.66 32.5864 24.6601 32.5996 24.6583L32.5979 25.1099C32.5376 25.1398 32.4359 25.1714 32.2927 25.2048C32.1496 25.2381 31.9991 25.2281 31.8412 25.1749C31.6777 25.1197 31.5594 25.0421 31.4864 24.9421C31.4133 24.8421 31.3686 24.7328 31.3521 24.6142C31.205 24.6964 31.0421 24.7419 30.8632 24.7507C30.6863 24.7538 30.5049 24.7239 30.3188 24.6611ZM30.7079 24.0105C30.8376 24.0543 30.9825 24.0623 31.1425 24.0347C31.3045 24.0014 31.4299 23.9276 31.5188 23.8131L32.238 21.6818C32.1969 21.5988 32.1295 21.5195 32.0356 21.4439C31.9418 21.3683 31.8385 21.3114 31.7258 21.2734C31.5341 21.2087 31.3478 21.2024 31.1669 21.2544C30.9861 21.3064 30.8172 21.4253 30.6603 21.611C30.511 21.793 30.3792 22.0531 30.2651 22.3914C30.1776 22.6508 30.1315 22.8896 30.1269 23.1079C30.128 23.3281 30.1744 23.5164 30.266 23.673C30.3576 23.8295 30.5049 23.942 30.7079 24.0105Z" fill="black"/>
<path d="M34.2078 25.9735C33.9597 25.8898 33.7588 25.7686 33.605 25.6099C33.4513 25.4513 33.3522 25.2703 33.3078 25.0669C33.2634 24.8635 33.2783 24.6518 33.3525 24.4319C33.44 24.1725 33.5772 23.9802 33.764 23.8548C33.9583 23.7256 34.1797 23.6465 34.4282 23.6173C34.6823 23.59 34.9373 23.5975 35.1931 23.6399C35.4564 23.6785 35.6989 23.7321 35.9208 23.8006L36.132 23.1748C36.1662 23.0733 36.144 22.9716 36.0653 22.8697C35.9886 22.7621 35.8487 22.6741 35.6457 22.6056C35.5893 22.5866 35.5264 22.5685 35.4568 22.5513C35.3872 22.5341 35.3261 22.5291 35.2734 22.5365L34.8848 23.046L34.0743 22.3768C34.2766 22.131 34.5491 21.9655 34.8919 21.8802C35.2347 21.7949 35.5866 21.8131 35.9474 21.9349C36.2068 22.0224 36.4284 22.1474 36.6122 22.31C36.7979 22.4668 36.9205 22.6621 36.9798 22.8956C37.0448 23.1311 37.024 23.4067 36.9175 23.7225L36.2468 25.71C36.222 25.7833 36.2181 25.8417 36.2348 25.885C36.2535 25.9227 36.2882 25.9501 36.339 25.9673C36.3672 25.9768 36.3963 25.9835 36.4264 25.9873C36.4565 25.9912 36.4772 25.9951 36.4885 25.9989L36.4811 26.4674C36.4226 26.4917 36.3294 26.5167 36.2013 26.5426C36.0733 26.5685 35.936 26.5567 35.7894 26.5072C35.6258 26.452 35.5057 26.3707 35.4289 26.2631C35.3578 26.1575 35.3169 26.0369 35.3061 25.9013C35.1477 25.9798 34.9744 26.0281 34.7862 26.0462C34.5979 26.0643 34.4051 26.0401 34.2078 25.9735ZM34.6082 25.3173C34.7717 25.3724 34.9326 25.3796 35.0908 25.3388C35.249 25.298 35.3744 25.2335 35.467 25.1454L35.7067 24.435C35.5864 24.4007 35.4529 24.3682 35.3062 24.3375C35.1596 24.3069 35.0138 24.2922 34.8689 24.2936C34.7296 24.2968 34.6034 24.3265 34.4903 24.3825C34.3828 24.4404 34.3062 24.5371 34.2606 24.6724C34.2168 24.8021 34.221 24.9291 34.2733 25.0535C34.333 25.1742 34.4447 25.2621 34.6082 25.3173Z" fill="black"/>
<path d="M32.9662 11.1157C33.4331 12.569 33.6947 15.5956 31.007 16.0757C32.1573 15.7161 34.6779 15.7581 35.5581 18.8034C35.0609 17.5097 34.6601 14.7873 37.0347 14.2475C35.9224 14.4077 33.5515 14.0055 32.9662 11.1157Z" stroke="black"/>
<path d="M38.5166 16.3763C38.6939 17.1217 38.7077 18.6467 37.3439 18.7829C37.9335 18.6474 39.1935 18.7661 39.516 20.3243C39.3173 19.6575 39.2221 18.2795 40.4315 18.1013C39.8686 18.1384 38.6976 17.8453 38.5166 16.3763Z" stroke="black"/>
<path d="M37.7754 11.167C37.9616 11.6509 38.0558 12.6218 36.9431 12.6343C37.42 12.5802 38.4613 12.7242 38.8109 13.733C38.6114 13.298 38.4584 12.4162 39.442 12.3686C38.9816 12.3615 38.0039 12.1114 37.7754 11.167Z" stroke="black"/>
</svg>
